<svg xmlns="http://www.w3.org/2000/svg" width="25.98" height="21.109" viewBox="0 0 25.98 21.109"><defs><style>.a{fill:#0250ad;}</style></defs><g transform="translate(0 0)"><g transform="translate(0 0)"><path class="a" d="M25.981,50.5a11.1,11.1,0,0,1-3.069.841A5.3,5.3,0,0,0,25.255,48.4a10.644,10.644,0,0,1-3.377,1.289,5.326,5.326,0,0,0-9.213,3.642,5.484,5.484,0,0,0,.123,1.215A15.076,15.076,0,0,1,1.809,48.971,5.328,5.328,0,0,0,3.446,56.09a5.26,5.26,0,0,1-2.406-.656v.058a5.351,5.351,0,0,0,4.267,5.233,5.316,5.316,0,0,1-1.4.175A4.709,4.709,0,0,1,2.9,60.81a5.377,5.377,0,0,0,4.977,3.71,10.7,10.7,0,0,1-6.6,2.272A9.975,9.975,0,0,1,0,66.719a15,15,0,0,0,8.171,2.39,15.055,15.055,0,0,0,15.16-15.156c0-.235-.008-.463-.019-.688A10.626,10.626,0,0,0,25.981,50.5Z" transform="translate(0 -48)"/></g></g></svg>