<svg xmlns="http://www.w3.org/2000/svg" width="25.98" height="25.98" viewBox="0 0 25.98 25.98"><defs><style>.a{fill:#0250ad;}</style></defs><path class="a" d="M17.862,0H8.119A8.12,8.12,0,0,0,0,8.119v9.743a8.12,8.12,0,0,0,8.119,8.119h9.743a8.12,8.12,0,0,0,8.119-8.119V8.119A8.12,8.12,0,0,0,17.862,0Zm5.683,17.862a5.689,5.689,0,0,1-5.683,5.683H8.119a5.689,5.689,0,0,1-5.683-5.683V8.119A5.689,5.689,0,0,1,8.119,2.436h9.743a5.689,5.689,0,0,1,5.683,5.683Z"/><g transform="translate(6.495 6.495)"><path class="a" d="M134.5,128a6.5,6.5,0,1,0,6.5,6.5A6.5,6.5,0,0,0,134.5,128Zm0,10.555a4.059,4.059,0,1,1,4.059-4.059A4.065,4.065,0,0,1,134.5,138.555Z" transform="translate(-128 -128)"/></g><g transform="translate(19.107 5.143)"><circle class="a" cx="0.865" cy="0.865" r="0.865"/></g></svg>